<?xml version="1.0" encoding="UTF-8" standalone="no"?>
<!DOCTYPE svg PUBLIC "-//W3C//DTD SVG 1.1//EN"
 "http://www.w3.org/Graphics/SVG/1.1/DTD/svg11.dtd">
<!-- Generated by graphviz version 11.0.0 (20240428.1522)
 -->
<!-- Title: G Pages: 1 -->
<svg width="281pt" height="148pt"
 viewBox="0.00 0.00 281.32 148.20" xmlns="http://www.w3.org/2000/svg" xmlns:xlink="http://www.w3.org/1999/xlink">
<g id="graph0" class="graph" transform="scale(1 1) rotate(0) translate(4 144.2)">
<title>G</title>
<polygon fill="white" stroke="none" points="-4,4 -4,-144.2 277.32,-144.2 277.32,4 -4,4"/>
<!-- 0 -->
<g id="node1" class="node">
<title>0</title>
<ellipse fill="none" stroke="green" cx="27" cy="-70.1" rx="27" ry="18"/>
<text text-anchor="middle" x="27" y="-64.68" font-family="Times New Roman,serif" font-size="14.00">0</text>
</g>
<!-- 1 -->
<g id="node2" class="node">
<title>1</title>
<ellipse fill="none" stroke="green" cx="156.08" cy="-18" rx="27" ry="18"/>
<text text-anchor="middle" x="156.08" y="-12.57" font-family="Times New Roman,serif" font-size="14.00">1</text>
</g>
<!-- 0&#45;&#45;1 -->
<g id="edge1" class="edge">
<title>0&#45;&#45;1</title>
<path fill="none" stroke="black" d="M50.38,-60.67C73.77,-51.22 109.55,-36.78 132.88,-27.36"/>
</g>
<!-- 2 -->
<g id="node3" class="node">
<title>2</title>
<ellipse fill="none" stroke="green" cx="156.08" cy="-122.2" rx="27" ry="18"/>
<text text-anchor="middle" x="156.08" y="-116.78" font-family="Times New Roman,serif" font-size="14.00">2</text>
</g>
<!-- 1&#45;&#45;2 -->
<g id="edge4" class="edge">
<title>1&#45;&#45;2</title>
<path fill="none" stroke="black" d="M156.08,-36.15C156.08,-55.16 156.08,-84.85 156.08,-103.91"/>
</g>
<!-- 3 -->
<g id="node4" class="node">
<title>3</title>
<ellipse fill="none" stroke="green" cx="246.32" cy="-70.1" rx="27" ry="18"/>
<text text-anchor="middle" x="246.32" y="-64.68" font-family="Times New Roman,serif" font-size="14.00">3</text>
</g>
<!-- 1&#45;&#45;3 -->
<g id="edge3" class="edge">
<title>1&#45;&#45;3</title>
<path fill="none" stroke="black" d="M176.56,-29.82C191.22,-38.29 210.9,-49.65 225.61,-58.14"/>
</g>
<!-- 2&#45;&#45;3 -->
<g id="edge2" class="edge">
<title>2&#45;&#45;3</title>
<path fill="none" stroke="black" d="M176.56,-110.38C191.22,-101.91 210.9,-90.55 225.61,-82.06"/>
</g>
</g>
</svg>
